<svg width="61" height="55" viewBox="0 0 61 55" fill="none" xmlns="http://www.w3.org/2000/svg">
<path d="M0 0H61V55H0V0Z" fill="white" fill-opacity="0.01"/>
<path d="M53.5899 33.51L37.1885 48.2981C36.3304 49.0727 35.166 49.5079 33.9517 49.5079C32.7374 49.5079 31.5731 49.0727 30.7149 48.2981L10.1666 29.7917V9.16666H33.0416L53.5899 27.6938C55.3637 29.3026 55.3637 31.9011 53.5899 33.51Z" fill="#495058" stroke="white" stroke-linejoin="round"/>
<path fill-rule="evenodd" clip-rule="evenodd" d="M23.5106 24.0625C25.2652 24.0625 26.6877 22.7799 26.6877 21.1979C26.6877 19.6158 25.2652 18.3333 23.5106 18.3333C21.7559 18.3333 20.3335 19.6158 20.3335 21.1979C20.3335 22.7799 21.7559 24.0625 23.5106 24.0625Z" fill="white"/>
</svg>
